<?xml version="1.0" encoding="UTF-8"?>
<svg preserveaspectratio="none" viewBox="0 -8 800 900" xmlns="http://www.w3.org/2000/svg"><style>.cls1{fill:#000080}</style>
 <g class="cls1">
 <path d="m368.56 118.06c-192.41 0-348.56 156.18-348.56 348.59s156.15 348.56 348.56 348.56 348.59-156.15 348.59-348.56-156.18-348.59-348.59-348.59zm0 27.156c2.9964 0 5.9918 0.0447 8.9688 0.125l0.03125 0.125-1.0625-0.09375c-1.6466 13.279 9.6879 25.365 26.281 28.062 17.569 2.856 34.494-6.0731 37.781-19.938l-1.4375-0.21875c0.0867-0.11289 0.17703-0.22769 0.25-0.34375 6.9743 1.5434 13.859 3.3 20.656 5.2812-0.02829 0.14075-0.05143 0.29123-0.0625 0.4375l-0.6875-0.25c-5.0275 12.401 2.7952 27.037 18.125 33.938 16.232 7.306 34.893 3.0412 41.656-9.5l-1.0625-0.46875c0.04734-0.08346 0.0851-0.16267 0.125-0.25 0.08073-0.17671 0.13927-0.3749 0.1875-0.5625 5.8123 3.0081 11.526 6.1601 17.125 9.5-7.4738 10.674-3.6183 26.413 9.1562 36.844 13.788 11.258 32.908 11.988 42.688 1.625l-0.6875-0.5625 0.0625-0.0625c5.9693 5.3814 11.763 10.978 17.312 16.781-0.09739 0.08368-0.19393 0.15513-0.28125 0.25l-0.65625-0.78125c-10.554 8.2256-11.107 24.766-1.2812 38.406 10.404 14.443 28.684 20.104 40.812 12.625l-0.65625-0.9375 0.0625-0.03125c0.20307-0.14826 0.36651-0.34028 0.53125-0.53125 3.8876 6.068 7.5831 12.258 11.062 18.594-11.734 5.5486-16.237 21.029-10.406 36.406 6.2156 16.391 22.014 26.505 35.531 22.906 1.8922 6.1315 3.6304 12.344 5.1562 18.625-12.917 2.1815-21.382 16.09-19.719 32.562 1.7665 17.491 14.465 31.369 28.5 31.312 0.13742 3.8419 0.21875 7.6875 0.21875 11.562 0 2.5938-0.032 5.1708-0.09375 7.75-13.078-1.2977-24.9 9.9636-27.562 26.344-2.8276 17.395 5.9026 34.134 19.531 37.656-1.4513 6.3014-3.1183 12.533-4.9375 18.688-12.308-4.6795-26.679 3.0961-33.5 18.25-7.2148 16.029-3.1484 34.436 9.0312 41.406-3.0404 5.6907-6.225 11.299-9.5938 16.781-10.676-7.6269-26.516-3.8392-37 9-11.085 13.576-11.962 32.342-2.0938 42.25-5.5819 5.9809-11.385 11.766-17.406 17.312-8.3078-10.249-24.653-10.696-38.156-0.96875-13.992 10.079-19.736 27.579-13.281 39.688-5.2947 3.2184-10.698 6.2989-16.188 9.2188-5.336-12.113-21.059-16.821-36.656-10.906-16.325 6.1907-26.444 21.894-22.969 35.375-6.1345 1.8276-12.344 3.4977-18.625 4.9688-2.357-12.734-16.165-21.056-32.5-19.406-17.195 1.7366-30.907 14.062-31.312 27.812-3.6403 0.12006-7.2991 0.1875-10.969 0.1875-3.8276 0-7.6419-0.08818-11.438-0.21875-0.84025-13.463-14.383-25.41-31.281-27.125-16.028-1.6269-29.608 6.3566-32.344 18.688-5.3136-1.2494-10.572-2.651-15.781-4.1562 4.294-12.197-3.4833-26.269-18.438-33-16.029-7.2148-34.436-3.1796-41.406 9-6.5947-3.4392-13.059-7.0986-19.375-10.969v-0.1875l0.875 0.625c8.0657-10.677 4.3028-26.805-8.7188-37.438-7.3246-5.9808-16.145-9.0162-24.281-8.9688-7.179 0.04191-13.822 2.486-18.406 7.3438l0.78125 0.625v0.5625c-5.5245-5.0519-10.872-10.297-16.031-15.719h0.28125v-0.4375l0.625 0.75c10.554-8.2256 11.107-24.797 1.2812-38.438-7.4778-10.381-19.029-16.22-29.438-15.906-4.073 0.12271-7.964 1.209-11.375 3.3125l0.875 1.2188h-1c-3.8028-5.982-7.4065-12.104-10.812-18.344 11.687-5.5743 16.164-21.057 10.344-36.406-6.1818-16.302-21.845-26.399-35.312-22.969-1.8713-6.1217-3.5873-12.324-5.0938-18.594 12.768-2.325 21.121-16.14 19.469-32.5-1.7483-17.311-14.231-31.116-28.094-31.344-0.12019-3.5941-0.1875-7.1896-0.1875-10.812 0-2.8248 0.02056-5.6301 0.09375-8.4375 12.898 0.99828 24.493-10.183 27.125-26.375 2.7882-17.152-5.6658-33.697-18.969-37.531 1.4564-6.2692 3.1168-12.47 4.9375-18.594 12.176 4.2213 26.192-3.584 32.906-18.5 7.0895-15.751 3.3149-33.765-8.375-41 3.9185-7.3142 8.1045-14.472 12.562-21.438 10.677 8.0103 26.761 4.2488 37.375-8.75 10.918-13.371 11.932-31.763 2.5312-41.781 4.1497-4.2901 8.4618-8.4425 12.844-12.5 8.2682 10.398 24.742 10.901 38.312 1.125 14.123-10.173 19.84-27.912 13.094-40.031 5.4842-3.351 11.055-6.5628 16.75-9.5938 0.01842 0.09466 0.05423 0.19438 0.09375 0.28125 0.05983 0.1315 0.14412 0.23451 0.25 0.34375l-0.875 0.40625c5.2137 12.324 21.094 17.148 36.812 11.188 16.644-6.3114 26.835-22.537 22.75-36.188l-0.9375 0.34375c0.01003-0.12503-0.01171-0.26068-0.03125-0.375 7.0212-2.1344 14.13-4.0227 21.344-5.6875 0.04724 0.10627 0.0978 0.20909 0.15625 0.3125l-1.875 0.3125c1.8464 13.253 15.93 22.002 32.656 20.312 17.71-1.7886 31.757-14.788 31.344-29.031l-1.0625 0.09375c0.01979-0.03339 0.04356-0.06038 0.0625-0.09375 4.1164-0.15386 8.2522-0.25 12.406-0.25zm317.91 384.94 0.03125 0.03125c-0.02956 0.14597-0.06398 0.2916-0.09375 0.4375l0.0625-0.46875z" fill-rule="evenodd" stroke="#000"/>
 <path transform="matrix(.59375 0 0 .59375 148.04 199.75)" d="m394.29 449.51a22.857 22.857 0 1 1 -45.714 0 22.857 22.857 0 1 1 45.714 0z" fill-rule="evenodd" stroke="#000" stroke-width="1.6842"/>
 <path transform="matrix(.63971 0 0 .63971 132.8 179.09)" d="m417.14 449.51a48.571 48.571 0 1 1 -97.143 0 48.571 48.571 0 1 1 97.143 0z" fill="none" stroke="#000" stroke-width="1.5632"/>
 <g transform="translate(.45712,-.25233)" fill-rule="evenodd" stroke="#000">
  <path d="m368.69 145.47-6.0591 226.53 6.0667 62.991 5.9092-63.127-5.9168-226.39z"/>
  <path d="m451.69 156.42-64.482 217.24-10.443 62.414 22.046-59.447 52.879-220.21z"/>
  <path d="m528.02 185.97-117.51 195.65-26.241 57.585 36.681-51.715 107.07-201.52z"/>
  <path d="m594.42 236.45-163.46 158.9-40.251 48.831 48.816-40.459 154.9-167.27z"/>
  <path d="m648.36 302.87-201.21 111.02-51.518 36.749 57.624-26.446 195.1-121.32z"/>
  <path d="m681.88 382.72-223.88 53.277-59.274 22.163 62.505-10.631 220.65-64.81z"/>
  <path d="m692.29 466.21-229.53-6.0591-62.991 6.0667 63.127 5.9092 229.39-5.9168z"/>
  <path d="m681.35 549.21-220.24-64.482-62.414-10.443 59.447 22.046 223.21 52.879z"/>
  <path d="m649.79 626.04-196.65-118.01-57.585-26.241 51.715 36.681 202.52 107.57z"/>
  <path d="m597.32 692.94-157.9-164.46-48.831-40.251 40.459 48.816 166.27 155.9z"/>
  <path d="m528.89 743.89-108.02-199.21-36.749-51.518 26.446 57.624 118.32 193.1z"/>
  <path d="m451.55 775.9-52.777-220.38-22.163-59.274 10.631 62.505 64.31 217.15z"/>
  <path d="m368.55 788.31 6.059-228.03-6.0667-62.991-5.9092 63.127 5.9168 227.89z"/>
  <path d="m285.06 778.37 64.982-219.74 10.443-62.414-22.046 59.447-53.379 222.71z"/>
  <path d="m207.72 746.32 119.01-195.65 26.241-57.585-36.681 51.715-108.57 201.52z"/>
  <path d="m139.82 694.84 166.46-157.9 40.251-48.831-48.816 40.459-157.9 166.27z"/>
  <path d="m87.877 627.92 202.21-109.52 51.518-36.749-57.624 26.446-196.1 119.82z"/>
  <path d="m54.359 550.57 224.88-54.277 59.274-22.163-62.505 10.631-221.65 65.81z"/>
  <path d="m43.951 466.57 230.53 5.559 62.991-6.0667-63.127-5.9092-230.39 6.4169z"/>
  <path d="m54.896 384.08 221.24 63.482 62.414 10.443-59.447-22.046-224.21-51.879z"/>
  <path d="m87.948 306.25 196.15 118.01 57.585 26.241-51.715-36.681-202.02-107.57z"/>
  <path d="m139.42 238.84 158.4 164.96 48.831 40.251-40.459-48.816-166.77-156.4z"/>
  <path d="m205.85 188.4 110.52 199.21 36.749 51.518-26.446-57.624-120.82-193.1z"/>
  <path d="m283.69 156.38 54.777 220.38 22.163 59.274-10.631-62.505-66.31-217.15z"/>
 </g>
 </g>
</svg>
